# xmcd
#
# Track frame offsets:
#	150
#	14471
#	29791
#	42612
#	58205
#	71459
#	87933
#	100416
#	113439
#	126722
#	138946
#	151565
#	164850
#	175205
#	194631
#	206361
#
# Disc length: 2885 seconds
#
# Revision: 0
# Processed by: cddbd v1.5.2PL0 Copyright (c) Steve Scherf et al.
# Submitted via: dBpowerAMP V4.0
#
DISCID=ed0b4310
DTITLE=Various Artist - Dis 'n Country Kersfees
DYEAR=2007
DGENRE=Country Gospel
TTITLE0=A Christmas letter
TTITLE1=A Christmas to remember
TTITLE2=C.H.R.I.S.T.M.A.S
TTITLE3=Christmas in Dixie
TTITLE4=Christmas time's a-coming
TTITLE5=Hard candy Christmas
TTITLE6=How do I wrap my heart up for Christmas
TTITLE7=I only want you for Christmas
TTITLE8=I'll be home for Christmas
TTITLE9=If we make it through December
TTITLE10=An old Christmas card
TTITLE11=Rockin' little Christmas
TTITLE12=Santa looked a lot like daddy
TTITLE13=Tennessee Christmas
TTITLE14=Til Santa's gone ( I just can't wait)
TTITLE15=We need a little Christmas
EXTD=
EXTT0=
EXTT1=
EXTT2=
EXTT3=
EXTT4=
EXTT5=
EXTT6=
EXTT7=
EXTT8=
EXTT9=
EXTT10=
EXTT11=
EXTT12=
EXTT13=
EXTT14=
EXTT15=
PLAYORDER=
